# xmcd CD database file
#
# Track frame offsets:
#	150
#	17414
#	38952
#
# Disc length: 743 seconds
#
# Revision: 3
# Processed by: cddbd v1.5PL3 Copyright (c) Steve Scherf et al.
# Submitted via: CDex 1.50Beta7
#
DISCID=1802e503
DTITLE=CBCラジオオールスターズ - あ･り･が･と･う
DYEAR=2002
DGENRE=Pop
TTITLE0=CBCオールスターズ - あ･り･が･と･う
TTITLE1=広瀬 隆 - あ･り･が･と･う
TTITLE2=CBCオールスターズ - あ･り･が･と･う (カラオケバージョン)
EXTD=YEAR: 2002
EXTT0=
EXTT1=
EXTT2=
PLAYORDER=
